# xmcd CD database file
#
# Track frame offsets:
#	150
#	18070
#	37518
#	55436
#
# Disc length: 994 seconds
#
# Revision: 1
# Processed by: cddbd v1.5.1PL2 Copyright (c) Steve Scherf et al.
# Submitted via: CDex 1.60beta1-cs1
#
DISCID=2003e004
DTITLE=タイナカ サチ GNCX-0003 - Fate／stay night OP2 きらめく涙は星に
DYEAR=2006
DGENRE=Anime
TTITLE0=タイナカ サチ - きらめく涙は星に
TTITLE1=タイナカ サチ - 少年の夢
TTITLE2=きらめく涙は星に-instrumental-
TTITLE3=少年の夢-instrumental-
EXTD=YEAR: 2006
EXTT0=
EXTT1=
EXTT2=
EXTT3=
PLAYORDER=
